<mxfile host="app.diagrams.net" modified="2023-09-12T01:39:39.330Z" agent="Mozilla/5.0 (Macintosh; Intel Mac OS X 10_15_7) AppleWebKit/537.36 (KHTML, like Gecko) Chrome/116.0.0.0 Safari/537.36" version="21.7.4" etag="1EVlln_sQ54BG42h62Ik" type="github">
  <diagram name="第 1 页" id="c-0HpoDqaz7walVh_RYi">
    <mxGraphModel>
      <root>
        <mxCell id="0" />
        <mxCell id="1" parent="0" />
      </root>
    </mxGraphModel>
  </diagram>
</mxfile>
